<svg width="1200" height="900" viewBox="0 0 1200 900" fill="none" xmlns="http://www.w3.org/2000/svg">
  <rect width="1200" height="900" rx="48" fill="#1B120C"/>
  <rect x="56" y="56" width="1088" height="788" rx="38" fill="url(#paint0_linear)"/>
  <path d="M252 321C252 255.83 304.83 203 370 203H834C899.17 203 952 255.83 952 321V575C952 640.17 899.17 693 834 693H370C304.83 693 252 640.17 252 575V321Z" fill="#FFF2DA" fill-opacity="0.14" stroke="#FFD166" stroke-opacity="0.5" stroke-width="10"/>
  <path d="M341 592L490 452L601 550L722 395L863 592" stroke="#FFF5E8" stroke-opacity="0.78" stroke-width="18" stroke-linecap="round" stroke-linejoin="round"/>
  <circle cx="467" cy="328" r="54" fill="#FFD166" fill-opacity="0.55"/>
  <text x="100" y="716" fill="#FFF7EF" font-family="Arial, sans-serif" font-size="74" font-weight="700">Warm Family Frame</text>
  <text x="104" y="780" fill="#FFFFFF" fill-opacity="0.7" font-family="Arial, sans-serif" font-size="34">Beautiful placeholders keep the page polished until custom images arrive.</text>
  <defs>
    <linearGradient id="paint0_linear" x1="56" y1="56" x2="1144" y2="844" gradientUnits="userSpaceOnUse">
      <stop stop-color="#3F2313"/>
      <stop offset="0.5" stop-color="#6B3B1B"/>
      <stop offset="1" stop-color="#24130B"/>
    </linearGradient>
  </defs>
</svg>
